<svg width="79" height="15" viewBox="0 0 79 15" fill="none" xmlns="http://www.w3.org/2000/svg">
<path d="M7.5 1L9.8175 5.27865L15 5.96898L11.25 9.29758L12.135 14L7.5 11.7787L2.865 14L3.75 9.29758L0 5.96898L5.1825 5.27865L7.5 1Z" fill="#E59819"/>
<path d="M23.5 1L25.8175 5.27865L31 5.96898L27.25 9.29758L28.135 14L23.5 11.7787L18.865 14L19.75 9.29758L16 5.96898L21.1825 5.27865L23.5 1Z" fill="#E59819"/>
<path d="M39.5 1L41.8175 5.27865L47 5.96898L43.25 9.29758L44.135 14L39.5 11.7787L34.865 14L35.75 9.29758L32 5.96898L37.1825 5.27865L39.5 1Z" fill="#E59819"/>
<path d="M55.5 1L57.8175 5.27865L63 5.96898L59.25 9.29758L60.135 14L55.5 11.7787L50.865 14L51.75 9.29758L48 5.96898L53.1825 5.27865L55.5 1Z" fill="#E59819"/>
<path d="M71 1V11.7787L66.674 14L67.5 9.29758L64 5.96898L68.837 5.27865L71 1Z" fill="#E59819"/>
<path d="M71 1L73.163 5.27865L78 5.96898L74.5 9.29758L75.326 14L71 11.7787V1Z" stroke="#E59819" stroke-linecap="round" stroke-linejoin="round"/>
</svg>
